<svg id="Capa_1" enable-background="new 0 0 512 512" viewBox="0 0 512 512" xmlns="http://www.w3.org/2000/svg"><path d="m483.377 476.037h-454.754c-11.666 0-21.123-9.457-21.123-21.123v-397.828c0-11.666 9.457-21.123 21.123-21.123h454.754c11.666 0 21.123 9.457 21.123 21.123v397.828c0 11.666-9.457 21.123-21.123 21.123z" fill="#e8f3ff"></path><path d="m483.377 35.963h-38.5c11.666 0 21.123 9.457 21.123 21.123v397.828c0 11.666-9.457 21.123-21.123 21.123h38.5c11.666 0 21.123-9.457 21.123-21.123v-397.828c0-11.666-9.457-21.123-21.123-21.123z" fill="#c1e2ff"></path><path d="m483.377 35.963h-454.754c-11.666 0-21.123 9.457-21.123 21.123v68.581h497v-68.581c0-11.666-9.457-21.123-21.123-21.123z" fill="#c1e2ff"></path><path d="m466 57.086v68.581h38.5v-68.581c0-11.666-9.457-21.123-21.123-21.123h-38.5c11.666 0 21.123 9.457 21.123 21.123z" fill="#b3d8fb"></path><circle cx="437.909" cy="80.847" fill="#02c6db" r="18.213"></circle><circle cx="364.876" cy="80.847" fill="#02c6db" r="18.213"></circle><path d="m290.797 252.556h-225.262c-6.187 0-11.202-5.016-11.202-11.202v-46.114c0-6.187 5.016-11.202 11.202-11.202h225.262c6.187 0 11.202 5.016 11.202 11.202v46.114c.001 6.187-5.015 11.202-11.202 11.202z" fill="#7fd061"></path><path d="m290.797 184.037h-46.447c6.187 0 11.202 5.016 11.202 11.202v46.115c0 6.187-5.016 11.202-11.202 11.202h46.447c6.187 0 11.202-5.016 11.202-11.202v-46.115c.001-6.186-5.015-11.202-11.202-11.202z" fill="#51be26"></path><path d="m458.917 270.996-27.061-27.061-9.12-1.4-161.55 161.548c-2.838 2.838-5.211 6.105-7.032 9.681l-26.185 51.425c-4.049 6.338 3.356 13.743 9.693 9.693l51.425-26.185c3.576-1.821 6.843-4.194 9.681-7.032l161.549-161.549z" fill="#fc5327" style="fill: rgb(37, 22, 19);"></path><path d="m254.155 413.763-26.185 51.425c-4.049 6.338 3.356 13.743 9.693 9.693l51.425-26.185z" fill="#3c5959"></path><path d="m499.234 241.199c7.021-7.021 7.021-18.403 0-25.424l-12.158-12.158c-7.021-7.021-18.403-7.021-25.424 0l-12.875 12.875 1.57 8.017 27.995 27.995 8.017 1.57z" fill="#fce25c" style="fill: rgb(255, 255, 255);"></path><path d="m436.133 221.729h36.829v53.149h-36.829z" fill="#0e80ac" transform="matrix(.707 -.707 .707 .707 -42.444 394.14)"></path><path d="m54.333 88.315h250.501c4.143 0 7.5-3.358 7.5-7.5s-3.357-7.5-7.5-7.5h-250.501c-4.143 0-7.5 3.358-7.5 7.5s3.357 7.5 7.5 7.5z" fill="#000000"></path><path d="m483.377 28.463h-454.754c-15.783 0-28.623 12.84-28.623 28.623v397.828c0 15.783 12.84 28.623 28.623 28.623h454.754c15.783 0 28.623-12.84 28.623-28.623v-397.828c0-15.783-12.84-28.623-28.623-28.623zm-454.754 15h454.754c7.512 0 13.623 6.111 13.623 13.623v61.081h-482v-61.081c0-7.512 6.111-13.623 13.623-13.623zm-13.623 411.451v-321.747h482v69.767l-4.62-4.62c-9.957-9.956-26.072-9.958-36.031 0-23.871 23.871-176.877 176.877-200.466 200.466-8.662 8.663-9.632 15.237-34.459 62.735-1.317 2.196-1.995 4.611-2.071 7.023h-190.73c-7.512-.001-13.623-6.112-13.623-13.624zm471.36-211.447-26.976-26.976 7.572-7.572c4.084-4.085 10.732-4.085 14.816 0l12.158 12.158c4.085 4.085 4.085 10.732.001 14.818zm-26.043 26.042-26.976-26.976 15.436-15.436 26.976 26.976zm-204.164 156.859 20.33 20.33-41.422 21.092zm227.224 42.169h-216.725c22.589-12.076 29.226-13.376 37.42-21.569l111.738-111.738c2.929-2.929 2.929-7.678 0-10.606-2.93-2.929-7.678-2.929-10.607 0-118.057 117.885-111.552 111.96-115.017 114.564l-26.523-26.523c2.606-3.469-6.566 6.287 159.072-159.524l26.975 26.975-19.714 19.714c-2.929 2.929-2.929 7.678 0 10.606 2.93 2.929 7.678 2.929 10.607 0 15.782-15.782 26.484-26.484 56.396-56.397v200.874c.001 7.513-6.11 13.624-13.622 13.624z" fill="#000000"></path><path d="m437.909 106.56c14.178 0 25.713-11.535 25.713-25.713s-11.535-25.713-25.713-25.713-25.713 11.535-25.713 25.713 11.535 25.713 25.713 25.713zm0-36.426c5.907 0 10.713 4.806 10.713 10.713s-4.806 10.713-10.713 10.713-10.713-4.806-10.713-10.713 4.806-10.713 10.713-10.713z" fill="#000000"></path><path d="m364.876 106.56c14.178 0 25.713-11.535 25.713-25.713s-11.535-25.713-25.713-25.713-25.713 11.535-25.713 25.713 11.535 25.713 25.713 25.713zm0-36.426c5.907 0 10.713 4.806 10.713 10.713s-4.806 10.713-10.713 10.713-10.713-4.806-10.713-10.713 4.806-10.713 10.713-10.713z" fill="#000000"></path><path d="m65.535 260.056h225.262c10.313 0 18.703-8.39 18.703-18.702v-46.114c0-10.313-8.391-18.703-18.703-18.703h-225.262c-10.313 0-18.702 8.39-18.702 18.703v5.526c0 4.142 3.357 7.5 7.5 7.5s7.5-3.358 7.5-7.5v-5.526c0-2.042 1.661-3.703 3.702-3.703h225.262c2.042 0 3.703 1.661 3.703 3.703v46.114c0 2.042-1.661 3.702-3.703 3.702h-225.262c-2.041 0-3.702-1.661-3.702-3.702v-5.526c0-4.142-3.357-7.5-7.5-7.5s-7.5 3.358-7.5 7.5v5.526c0 10.313 8.39 18.702 18.702 18.702z" fill="#000000"></path><path d="m54.333 296.924h247.188c4.143 0 7.5-3.358 7.5-7.5s-3.357-7.5-7.5-7.5h-247.188c-4.143 0-7.5 3.358-7.5 7.5s3.357 7.5 7.5 7.5z" fill="#000000"></path><path d="m54.333 334.14h247.188c4.143 0 7.5-3.358 7.5-7.5s-3.357-7.5-7.5-7.5h-247.188c-4.143 0-7.5 3.358-7.5 7.5s3.357 7.5 7.5 7.5z" fill="#000000"></path><path d="m178.166 356.355h-123.833c-4.143 0-7.5 3.358-7.5 7.5s3.357 7.5 7.5 7.5h123.833c4.143 0 7.5-3.358 7.5-7.5s-3.357-7.5-7.5-7.5z" fill="#000000"></path></svg>