<svg width="300" height="300" viewBox="0 0 300 300" fill="none" xmlns="http://www.w3.org/2000/svg">
<g clip-path="url(#clip0_2_8)">
<circle cx="150" cy="150" r="150" fill="url(#paint0_linear_2_8)"/>
<g clip-path="url(#clip1_2_8)">
<path d="M68.2926 172.008C68.2926 172.618 67.9673 172.984 67.3166 173.106L63.8396 173.838V213.061H60.8506C60.0373 213.061 59.346 212.715 58.7766 212.024L33.4616 179.084C33.543 179.775 33.5836 180.711 33.5836 181.89V208.608C34.7223 208.771 36.0846 209.015 37.6706 209.34C38.24 209.462 38.5246 209.828 38.5246 210.438V213.061H24.0066V210.438C24.0066 209.828 24.3116 209.462 24.9216 209.34L28.3986 208.608V173.838C26.4466 173.472 25.2876 173.228 24.9216 173.106C24.3116 172.984 24.0066 172.598 24.0066 171.947V169.324H31.4486C31.9773 169.324 32.3636 169.385 32.6076 169.507C32.7703 169.588 33.0753 169.853 33.5226 170.3L58.7766 203.24C58.6953 202.671 58.6546 201.695 58.6546 200.312V173.838C57.4753 173.675 56.54 173.533 55.8486 173.411C55.1573 173.248 54.7506 173.147 54.6286 173.106C53.978 172.984 53.6526 172.618 53.6526 172.008V169.324H68.2926V172.008ZM98.083 209.096C98.3677 209.137 98.5914 209.279 98.754 209.523C98.9167 209.726 98.998 209.97 98.998 210.255V212.878H92.654C92.288 212.878 91.861 212.797 91.373 212.634C91.0884 212.553 90.885 212.227 90.763 211.658L90.153 208.73L87.713 210.743C87.0217 211.312 86.2084 211.8 85.273 212.207C84.3783 212.614 83.4837 212.919 82.589 213.122C81.7757 213.325 80.6777 213.427 79.295 213.427C78.1563 213.427 77.0583 213.244 76.001 212.878C74.7403 212.431 73.8253 211.943 73.256 211.414C72.524 210.763 71.914 209.909 71.426 208.852C70.9787 207.917 70.755 206.697 70.755 205.192C70.755 203.891 71.0803 202.711 71.731 201.654C72.463 200.475 73.561 199.458 75.025 198.604C76.6517 197.669 78.6037 196.937 80.881 196.408C83.2397 195.879 86.2083 195.615 89.787 195.615V193.236C89.787 190.837 89.2584 189.007 88.201 187.746C87.1437 186.485 85.6187 185.855 83.626 185.855C82.3247 185.855 81.2063 186.038 80.271 186.404C79.2137 186.811 78.441 187.177 77.953 187.502C77.709 187.665 77.4243 187.848 77.099 188.051C76.8143 188.214 76.5093 188.397 76.184 188.6C75.7367 188.925 75.269 189.088 74.781 189.088C74.3337 189.088 74.0083 189.007 73.805 188.844C73.561 188.641 73.3577 188.397 73.195 188.112L72.219 186.404C73.805 184.859 75.635 183.639 77.709 182.744C79.5797 181.931 81.7757 181.524 84.297 181.524C86.127 181.524 87.6723 181.809 88.933 182.378C90.3157 182.988 91.434 183.761 92.288 184.696C93.1827 185.631 93.874 186.851 94.362 188.356C94.8094 189.698 95.033 191.284 95.033 193.114V208.547C96.985 208.954 98.0017 209.177 98.083 209.218V209.096ZM89.665 199.092C87.0217 199.092 84.907 199.234 83.321 199.519C81.7757 199.804 80.3523 200.231 79.051 200.8C77.9123 201.329 77.099 201.939 76.611 202.63C76.123 203.362 75.879 204.135 75.879 204.948C75.879 205.599 76.0213 206.29 76.306 207.022C76.55 207.632 76.916 208.12 77.404 208.486C77.892 208.852 78.4207 209.116 78.99 209.279C79.6813 209.482 80.3523 209.584 81.003 209.584C81.8163 209.584 82.6703 209.482 83.565 209.279C84.3783 209.076 85.1307 208.811 85.822 208.486C86.432 208.201 87.103 207.754 87.835 207.144C88.2417 206.819 88.8517 206.249 89.665 205.436V199.092ZM112.216 188.417C114.494 183.822 117.625 181.524 121.61 181.524C123.196 181.524 124.599 181.89 125.819 182.622L125.148 186.709C125.026 187.238 124.762 187.502 124.355 187.502C124.071 187.502 123.583 187.4 122.891 187.197C122.2 186.994 121.366 186.892 120.39 186.892C116.812 186.892 114.168 189.047 112.46 193.358V208.608L115.937 209.279C116.547 209.401 116.852 209.787 116.852 210.438V213H102.639V210.438C102.639 209.787 102.944 209.401 103.554 209.279L107.031 208.608V186.587C105.079 186.221 103.92 185.977 103.554 185.855C102.944 185.733 102.639 185.347 102.639 184.696V182.134H110.142C110.712 182.134 111.098 182.236 111.301 182.439C111.505 182.642 111.667 183.029 111.789 183.598L112.155 188.417H112.216ZM138.547 188.417C140.824 183.822 143.955 181.524 147.941 181.524C149.527 181.524 150.93 181.89 152.15 182.622L151.479 186.709C151.357 187.238 151.092 187.502 150.686 187.502C150.401 187.502 149.913 187.4 149.222 187.197C148.53 186.994 147.697 186.892 146.721 186.892C143.142 186.892 140.499 189.047 138.791 193.358V208.608L142.268 209.279C142.878 209.401 143.183 209.787 143.183 210.438V213H128.97V210.438C128.97 209.787 129.275 209.401 129.885 209.279L133.362 208.608V186.587C131.41 186.221 130.251 185.977 129.885 185.855C129.275 185.733 128.97 185.347 128.97 184.696V182.134H136.473C137.042 182.134 137.428 182.236 137.632 182.439C137.835 182.642 137.998 183.029 138.12 183.598L138.486 188.417H138.547ZM180.886 209.096C181.17 209.137 181.394 209.279 181.557 209.523C181.719 209.726 181.801 209.97 181.801 210.255V212.878H175.457C175.091 212.878 174.664 212.797 174.176 212.634C173.891 212.553 173.688 212.227 173.566 211.658L172.956 208.73L170.516 210.743C169.824 211.312 169.011 211.8 168.076 212.207C167.181 212.614 166.286 212.919 165.392 213.122C164.578 213.325 163.48 213.427 162.098 213.427C160.959 213.427 159.861 213.244 158.804 212.878C157.543 212.431 156.628 211.943 156.059 211.414C155.327 210.763 154.717 209.909 154.229 208.852C153.781 207.917 153.558 206.697 153.558 205.192C153.558 203.891 153.883 202.711 154.534 201.654C155.266 200.475 156.364 199.458 157.828 198.604C159.454 197.669 161.406 196.937 163.684 196.408C166.042 195.879 169.011 195.615 172.59 195.615V193.236C172.59 190.837 172.061 189.007 171.004 187.746C169.946 186.485 168.421 185.855 166.429 185.855C165.127 185.855 164.009 186.038 163.074 186.404C162.016 186.811 161.244 187.177 160.756 187.502C160.512 187.665 160.227 187.848 159.902 188.051C159.617 188.214 159.312 188.397 158.987 188.6C158.539 188.925 158.072 189.088 157.584 189.088C157.136 189.088 156.811 189.007 156.608 188.844C156.364 188.641 156.16 188.397 155.998 188.112L155.022 186.404C156.608 184.859 158.438 183.639 160.512 182.744C162.382 181.931 164.578 181.524 167.1 181.524C168.93 181.524 170.475 181.809 171.736 182.378C173.118 182.988 174.237 183.761 175.091 184.696C175.985 185.631 176.677 186.851 177.165 188.356C177.612 189.698 177.836 191.284 177.836 193.114V208.547C179.788 208.954 180.804 209.177 180.886 209.218V209.096ZM172.468 199.092C169.824 199.092 167.71 199.234 166.124 199.519C164.578 199.804 163.155 200.231 161.854 200.8C160.715 201.329 159.902 201.939 159.414 202.63C158.926 203.362 158.682 204.135 158.682 204.948C158.682 205.599 158.824 206.29 159.109 207.022C159.353 207.632 159.719 208.12 160.207 208.486C160.695 208.852 161.223 209.116 161.793 209.279C162.484 209.482 163.155 209.584 163.806 209.584C164.619 209.584 165.473 209.482 166.368 209.279C167.181 209.076 167.933 208.811 168.625 208.486C169.235 208.201 169.906 207.754 170.638 207.144C171.044 206.819 171.654 206.249 172.468 205.436V199.092ZM194.758 213.488C192.4 213.488 190.529 212.797 189.146 211.414C187.845 210.113 187.194 208.161 187.194 205.558V186.648H183.473C183.107 186.648 182.823 186.567 182.619 186.404C182.416 186.241 182.314 185.936 182.314 185.489V183.354L187.377 182.683L188.597 173.106C188.597 172.781 188.719 172.537 188.963 172.374C189.167 172.211 189.451 172.13 189.817 172.13H192.562V182.744H201.407V186.709H192.562V205.253C192.562 206.595 192.867 207.571 193.477 208.181C194.087 208.791 194.921 209.096 195.978 209.096C196.426 209.096 196.934 209.015 197.503 208.852C197.869 208.73 198.235 208.567 198.601 208.364C198.723 208.283 198.845 208.201 198.967 208.12C199.089 208.039 199.211 207.957 199.333 207.876C199.659 207.713 199.862 207.632 199.943 207.632C200.228 207.632 200.472 207.795 200.675 208.12L202.261 210.682C201.163 211.617 200.025 212.309 198.845 212.756C197.503 213.244 196.141 213.488 194.758 213.488ZM210.026 175.119C209.7 174.794 209.416 174.387 209.172 173.899C208.968 173.492 208.867 173.004 208.867 172.435C208.867 171.825 208.968 171.317 209.172 170.91C209.456 170.341 209.741 169.914 210.026 169.629C210.351 169.304 210.758 169.019 211.246 168.775C211.652 168.572 212.14 168.47 212.71 168.47C213.279 168.47 213.767 168.572 214.174 168.775C214.662 169.019 215.068 169.304 215.394 169.629C215.678 169.914 215.963 170.341 216.248 170.91C216.492 171.398 216.614 171.906 216.614 172.435C216.614 172.923 216.492 173.411 216.248 173.899C216.004 174.387 215.719 174.794 215.394 175.119C215.068 175.444 214.662 175.729 214.174 175.973C213.767 176.176 213.279 176.278 212.71 176.278C212.14 176.278 211.652 176.176 211.246 175.973C210.758 175.729 210.351 175.444 210.026 175.119ZM218.871 209.218C219.155 209.259 219.379 209.401 219.542 209.645C219.704 209.848 219.786 210.092 219.786 210.377V213H205.573V210.377C205.573 210.092 205.654 209.848 205.817 209.645C205.979 209.401 206.203 209.259 206.488 209.218L210.026 208.547V186.526L206.488 185.855C206.203 185.814 205.979 185.692 205.817 185.489C205.654 185.245 205.573 184.981 205.573 184.696V182.134H215.394V208.547L218.871 209.218ZM256.572 184.818C256.572 185.428 256.267 185.794 255.657 185.916C255.535 185.916 255.352 185.957 255.108 186.038C254.905 186.079 254.641 186.119 254.315 186.16L252.668 186.526L241.871 213.061H236.93L226.133 186.526C225.727 186.404 225.178 186.282 224.486 186.16L223.144 185.916C222.534 185.794 222.229 185.408 222.229 184.757V182.134H236.076V184.757C236.076 185.408 235.771 185.794 235.161 185.916C234.877 185.997 234.45 186.079 233.88 186.16C233.311 186.241 232.62 186.363 231.806 186.526L238.333 203.118C238.659 203.972 239.025 205.436 239.431 207.51C240.001 205.233 240.407 203.769 240.651 203.118L247.239 186.526L243.762 185.855C243.152 185.733 242.847 185.347 242.847 184.696V182.134H256.572V184.818ZM271.721 181.646C273.51 181.646 275.198 181.951 276.784 182.561C278.411 183.171 279.753 184.045 280.81 185.184C282.03 186.485 282.925 187.929 283.494 189.515C284.145 191.345 284.47 193.297 284.47 195.371C284.47 196.306 284.389 196.876 284.226 197.079C284.023 197.364 283.657 197.506 283.128 197.506H262.632C262.632 199.458 262.876 201.166 263.364 202.63C263.771 203.891 264.462 205.07 265.438 206.168C266.333 207.185 267.349 207.917 268.488 208.364C269.708 208.852 271.009 209.096 272.392 209.096C273.856 209.096 275.035 208.954 275.93 208.669C276.784 208.384 277.638 208.039 278.492 207.632C279.387 207.185 279.997 206.859 280.322 206.656C280.851 206.331 281.257 206.168 281.542 206.168C281.989 206.168 282.335 206.351 282.579 206.717L284.104 208.73C283.535 209.462 282.721 210.153 281.664 210.804C280.444 211.577 279.448 212.085 278.675 212.329C277.455 212.736 276.357 213.02 275.381 213.183C274.161 213.386 273.043 213.488 272.026 213.488C269.911 213.488 267.939 213.122 266.109 212.39C264.36 211.699 262.795 210.621 261.412 209.157C260.111 207.815 259.094 206.087 258.362 203.972C257.63 201.898 257.264 199.539 257.264 196.896C257.264 194.781 257.61 192.789 258.301 190.918C258.992 189.007 259.948 187.38 261.168 186.038C262.429 184.655 263.954 183.578 265.743 182.805C267.532 182.032 269.525 181.646 271.721 181.646ZM271.843 185.611C269.2 185.611 267.146 186.363 265.682 187.868C264.177 189.454 263.242 191.569 262.876 194.212H279.651C279.651 192.951 279.468 191.813 279.102 190.796C278.655 189.535 278.167 188.62 277.638 188.051C276.947 187.319 276.113 186.729 275.137 186.282C274.202 185.875 273.083 185.672 271.782 185.672L271.843 185.611Z" fill="#3A6B35"/>
<path d="M91.263 94.504C91.263 95.434 90.767 95.992 89.775 96.178L84.474 97.294V157.093H79.917C78.677 157.093 77.623 156.566 76.755 155.512L38.16 105.292C38.284 106.346 38.346 107.772 38.346 109.57V150.304C40.082 150.552 42.159 150.924 44.577 151.42C45.445 151.606 45.879 152.164 45.879 153.094V157.093H23.745V153.094C23.745 152.164 24.21 151.606 25.14 151.42L30.441 150.304V97.294C27.465 96.736 25.698 96.364 25.14 96.178C24.21 95.992 23.745 95.403 23.745 94.411V90.412H35.091C35.897 90.412 36.486 90.505 36.858 90.691C37.106 90.815 37.571 91.218 38.253 91.9L76.755 142.12C76.631 141.252 76.569 139.764 76.569 137.656V97.294C74.771 97.046 73.345 96.829 72.291 96.643C71.237 96.395 70.617 96.24 70.431 96.178C69.439 95.992 68.943 95.434 68.943 94.504V90.412H91.263V94.504ZM116.686 109.198C119.414 109.198 121.987 109.663 124.405 110.593C126.885 111.523 128.931 112.856 130.543 114.592C132.403 116.576 133.767 118.777 134.635 121.195C135.627 123.985 136.123 126.961 136.123 130.123C136.123 131.549 135.999 132.417 135.751 132.727C135.441 133.161 134.883 133.378 134.077 133.378H102.829C102.829 136.354 103.201 138.958 103.945 141.19C104.565 143.112 105.619 144.91 107.107 146.584C108.471 148.134 110.021 149.25 111.757 149.932C113.617 150.676 115.601 151.048 117.709 151.048C119.941 151.048 121.739 150.831 123.103 150.397C124.405 149.963 125.707 149.436 127.009 148.816C128.373 148.134 129.303 147.638 129.799 147.328C130.605 146.832 131.225 146.584 131.659 146.584C132.341 146.584 132.868 146.863 133.24 147.421L135.565 150.49C134.697 151.606 133.457 152.66 131.845 153.652C129.985 154.83 128.466 155.605 127.288 155.977C125.428 156.597 123.754 157.031 122.266 157.279C120.406 157.589 118.701 157.744 117.151 157.744C113.927 157.744 110.92 157.186 108.13 156.07C105.464 155.016 103.077 153.373 100.969 151.141C98.9852 149.095 97.4352 146.46 96.3192 143.236C95.2032 140.074 94.6452 136.478 94.6452 132.448C94.6452 129.224 95.1722 126.186 96.2262 123.334C97.2802 120.42 98.7372 117.94 100.597 115.894C102.519 113.786 104.844 112.143 107.572 110.965C110.3 109.787 113.338 109.198 116.686 109.198ZM116.872 115.243C112.842 115.243 109.711 116.39 107.479 118.684C105.185 121.102 103.759 124.326 103.201 128.356H128.776C128.776 126.434 128.497 124.698 127.939 123.148C127.257 121.226 126.513 119.831 125.707 118.963C124.653 117.847 123.382 116.948 121.894 116.266C120.468 115.646 118.763 115.336 116.779 115.336L116.872 115.243ZM180.011 150.49C180.755 150.676 182.119 150.924 184.103 151.234C185.219 151.42 185.777 152.04 185.777 153.094V157.093H167.27V153.094C167.27 152.164 167.735 151.606 168.665 151.42C168.789 151.42 169.037 151.389 169.409 151.327C169.781 151.203 170.339 151.079 171.083 150.955L161.969 136.912C161.845 137.532 161.535 138.338 161.039 139.33L153.227 150.862C153.475 150.862 153.847 150.924 154.343 151.048L156.017 151.42C156.947 151.606 157.412 152.164 157.412 153.094V157.093H138.905V153.094C138.905 152.164 139.37 151.606 140.3 151.42C140.424 151.42 140.672 151.358 141.044 151.234C141.478 151.048 141.974 150.924 142.532 150.862C144.02 150.614 144.764 150.49 144.764 150.49L156.761 133.006L145.508 116.638C144.268 116.39 143.214 116.204 142.346 116.08C141.54 115.956 140.951 115.832 140.579 115.708C139.711 115.522 139.277 114.964 139.277 114.034V109.942H157.691V114.034C157.691 114.964 157.195 115.522 156.203 115.708C156.141 115.708 155.986 115.739 155.738 115.801C155.49 115.863 155.025 115.956 154.343 116.08L162.62 128.914C162.868 128.108 163.271 127.24 163.829 126.31L170.711 116.173L169.223 115.894L168.2 115.708C167.27 115.522 166.805 114.933 166.805 113.941V109.942H185.219V113.941C185.219 114.933 184.754 115.522 183.824 115.708C181.654 116.142 180.011 116.452 178.895 116.638L167.735 132.448L179.825 150.397L180.011 150.49ZM215.099 151.234C219.749 151.234 223.996 149.064 227.84 144.724V116.824C227.282 116.638 225.515 116.266 222.539 115.708C221.609 115.522 221.144 114.933 221.144 113.941V109.942H236.117V150.304C239.093 150.862 240.86 151.234 241.418 151.42C242.348 151.606 242.813 152.164 242.813 153.094V157.093H231.188C230.072 157.093 229.328 156.504 228.956 155.326L228.305 150.304C223.841 155.326 218.633 157.837 212.681 157.837C207.659 157.837 203.753 156.194 200.963 152.908C198.235 149.622 196.871 145.313 196.871 139.981V116.731C194.019 116.173 192.283 115.801 191.663 115.615C190.671 115.429 190.175 114.84 190.175 113.848V109.942H205.241V139.888C205.241 143.608 206.047 146.398 207.659 148.258C209.333 150.18 211.813 151.141 215.099 151.141V151.234ZM266.755 109.198C269.979 109.198 274.071 110.035 279.031 111.709V123.799H275.404C274.536 123.799 274.009 123.365 273.823 122.497L273.265 116.359C270.351 115.677 267.933 115.336 266.011 115.336H265.918C263.376 115.336 261.237 116.018 259.501 117.382C257.827 118.684 256.99 120.11 256.99 121.66C256.99 123.272 257.362 124.45 258.106 125.194C259.346 126.62 261.144 127.705 263.5 128.449L266.29 129.286C266.786 129.41 267.778 129.72 269.266 130.216L273.73 131.89C274.97 132.324 276.272 133.13 277.636 134.308C280.178 136.292 281.449 139.02 281.449 142.492C281.449 147.018 279.93 150.614 276.892 153.28C273.606 156.194 269.452 157.651 264.43 157.651C259.284 157.651 254.2 156.814 249.178 155.14V142.864H252.526C253.27 142.864 253.735 143.236 253.921 143.98L254.479 149.932C256.959 151.172 260.152 151.792 264.058 151.792C267.034 151.792 269.452 151.017 271.312 149.467C272.924 148.041 273.73 146.46 273.73 144.724C273.73 142.926 273.358 141.624 272.614 140.818C271.746 139.826 270.816 139.082 269.824 138.586C268.46 137.904 267.158 137.408 265.918 137.098C261.33 135.61 258.447 134.618 257.269 134.122C255.781 133.44 254.386 132.572 253.084 131.518C250.48 129.348 249.178 126.434 249.178 122.776C249.178 119.056 250.666 115.894 253.642 113.29C256.742 110.562 261.113 109.198 266.755 109.198Z" fill="#3A6B35"/>
</g>
<path d="M68.5118 60.1273C68.0298 60.3969 67.8576 61.0062 68.1273 61.4882C68.3969 61.9702 69.0062 62.1424 69.4882 61.8727L68.5118 60.1273ZM175.971 0.0155731L68.5118 60.1273L69.4882 61.8727L176.947 1.76104L175.971 0.0155731Z" fill="#3A6B35"/>
<path d="M89 80C88.5195 80.2723 88.3507 80.8825 88.623 81.363C88.8953 81.8435 89.5055 82.0123 89.986 81.74L89 80ZM209 12L89 80L89.986 81.74L209.986 13.74L209 12Z" fill="#3A6B35"/>
<path d="M232 25L119 97" stroke="#3A6B35" stroke-width="2" stroke-linecap="round"/>
</g>
<defs>
<linearGradient id="paint0_linear_2_8" x1="18" y1="38" x2="300" y2="209" gradientUnits="userSpaceOnUse">
<stop offset="0.486667" stop-color="#E3B448"/>
<stop offset="1" stop-color="#CBD18F"/>
</linearGradient>
<clipPath id="clip0_2_8">
<rect width="300" height="300" fill="white"/>
</clipPath>
<clipPath id="clip1_2_8">
<rect width="300" height="196" fill="white" transform="translate(0 48)"/>
</clipPath>
</defs>
</svg>
